<svg viewBox="0 0 24 24" fill="none" xmlns="http://www.w3.org/2000/svg" stroke="currentColor" stroke-width="2" stroke-linecap="round" stroke-linejoin="round">
<path d="M10.325 4.317c.426-1.756 2.924-1.756 3.35 0a1.724 1.724 0 002.591 1.066c1.532-.988 3.29.77 2.303 2.302a1.724 1.724 0 001.065 2.592c1.756.426 1.756 2.924 0 3.35a1.724 1.724 0 00-1.066 2.591c.988 1.532-.77 3.29-2.302 2.303a1.724 1.724 0 00-2.592 1.065c-.426 1.756-2.924 1.756-3.35 0a1.724 1.724 0 00-2.591-1.066c-1.532.988-3.29-.77-2.303-2.302a1.724 1.724 0 00-1.065-2.592c-1.756-.426-1.756-2.924 0-3.35a1.724 1.724 0 001.066-2.591c-.988-1.532.77-3.29 2.302-2.303.997.643 2.307.106 2.592-1.065z"/>
<path d="M12 15a3 3 0 100-6 3 3 0 000 6z"/>
</svg>

