<?xml version="1.0" encoding="UTF-8"?>
<svg fill="none" viewBox="0 0 24 24" xmlns="http://www.w3.org/2000/svg">
<path d="m18 2h-12c-1.6568 0-3 1.3432-3 3v1.5442c0 0.89552 0.40007 1.7442 1.0908 2.3141l3.2728 2.7001c0.69079 0.5699 1.0909 1.4186 1.0909 2.3141v6.2515c0 1.6247 1.8348 2.5715 3.159 1.63l3.0909-2.1977c0.5276-0.3751 0.8411-0.9825 0.8411-1.63v-4.0538c0-0.8955 0.4-1.7442 1.0908-2.3141l3.2728-2.7001c0.6908-0.5699 1.0909-1.4186 1.0909-2.3141v-1.5442c0-1.6568-1.3431-3-3-3z" stroke-width="1.5"/>
</svg>
