<?xml version="1.0" encoding="UTF-8"?>
<svg fill="none" viewBox="0 0 24 24" xmlns="http://www.w3.org/2000/svg">
<g stroke-width="1.5">
<path d="m18.41 3.6512 2.1214 2.1213c0.8786 0.87868 0.8786 2.3033 0 3.182l-10.991 10.991c-0.36245 0.3624-0.8378 0.5902-1.3474 0.6457l-3.6177 0.3941c-0.79412 0.0864-1.4645-0.5839-1.378-1.378l0.39401-3.6178c0.0555-0.5095 0.28333-0.9849 0.64578-1.3473l-0.53033-0.5304 0.53033 0.5304 10.991-10.991c0.8786-0.87868 2.3033-0.87868 3.1819 0z"/>
<path d="m15.228 3.6512c0.8786-0.87868 2.3033-0.87868 3.1819 0l2.1214 2.1213c0.8786 0.87868 0.8786 2.3033 0 3.182l-1.8032 1.8031-5.3033-5.3033 1.8032-1.8031z"/>
</g>
</svg>
