<?xml version="1.0" encoding="UTF-8"?>
<svg fill="none" viewBox="0 0 24 24" xmlns="http://www.w3.org/2000/svg">
<g clip-path="url(#a)">
<g stroke-linecap="round" stroke-width="1.5">
<path d="m19 23h-14c-1.6568 0-3-1.3431-3-3v-8.437c0-1.1536 0.49808-2.2511 1.3664-3.0106l6.6584-5.8245c1.131-0.98934 2.8194-0.98933 3.9504 0l6.6584 5.8245c0.8683 0.75956 1.3664 1.857 1.3664 3.0106v8.437c0 1.6569-1.3431 3-3 3z"/>
<path d="m7.4843 15.147c0.40608 0.8542 1.0461 1.5756 1.8457 2.0807 0.79964 0.505 1.7261 0.7729 2.6719 0.7725 0.9457-4e-4 1.872-0.269 2.6712-0.7746 0.7993-0.5057 1.4387-1.2277 1.8441-2.0821" stroke-linejoin="round"/>
</g>
</g>
<defs>
<clipPath id="a">
<rect transform="translate(0 24) rotate(-90)" width="24" height="24" fill="CurrentColor"/>
</clipPath>
</defs>
</svg>
